<?xml version="1.0" standalone="no"?>
<!DOCTYPE svg PUBLIC "-//W3C//DTD SVG 20010904//EN"
 "http://www.w3.org/TR/2001/REC-SVG-20010904/DTD/svg10.dtd">
<svg version="1.0" xmlns="http://www.w3.org/2000/svg"
 width="1200.000000pt" height="1200.000000pt" viewBox="0 0 1200.000000 1200.000000"
 preserveAspectRatio="xMidYMid meet">
<metadata>
Created by potrace 1.14, written by Peter Selinger 2001-2017
</metadata>
<g transform="translate(0.000000,1200.000000) scale(0.100000,-0.100000)"
fill="#000000" stroke="none">
<path d="M1219 7498 c-18 -35 -76 -142 -139 -258 -31 -58 -75 -139 -98 -180
-22 -41 -63 -117 -91 -169 -28 -52 -51 -97 -51 -102 0 -4 -3 -9 -7 -11 -5 -1
-28 -41 -52 -88 -24 -47 -52 -98 -61 -115 -46 -83 -156 -285 -240 -440 -18
-33 -47 -87 -65 -120 -18 -33 -73 -135 -123 -226 -50 -91 -95 -175 -101 -185
-5 -10 -38 -71 -72 -134 -34 -63 -75 -139 -91 -167 l-29 -53 313 0 313 0 97
178 c54 98 104 186 112 197 13 18 30 19 416 19 454 1 410 9 426 -79 4 -22 8
-44 10 -50 1 -5 15 -67 30 -137 l27 -127 314 -1 c296 0 314 1 309 17 -5 19
-32 134 -40 174 -17 87 -33 162 -101 469 -42 190 -79 356 -81 370 -3 14 -10
45 -15 70 -6 25 -13 56 -15 69 -3 14 -21 97 -41 185 -19 89 -41 190 -48 226
-8 36 -23 108 -35 160 -26 113 -20 86 -65 295 -20 94 -39 181 -42 194 -2 14
-6 28 -9 33 -3 4 -149 8 -324 8 l-319 0 -12 -22z m262 -918 c31 -192 34 -211
44 -260 2 -14 7 -45 10 -70 4 -25 11 -67 16 -94 5 -26 7 -51 5 -55 -6 -10
-465 -8 -469 2 -1 4 77 165 173 357 122 243 177 344 182 332 4 -9 21 -105 39
-212z"/>
<path d="M8141 7126 c-12 -73 -23 -139 -25 -147 -1 -8 -8 -52 -15 -99 l-13
-85 -89 2 c-64 2 -89 -1 -90 -10 -1 -23 -6 -52 -12 -87 -4 -19 -9 -55 -12 -80
-3 -25 -8 -56 -10 -70 -37 -223 -42 -206 58 -205 49 0 81 -4 80 -10 -1 -6 -4
-30 -8 -55 -3 -25 -8 -52 -10 -60 -2 -8 -6 -37 -10 -65 -3 -27 -8 -57 -10 -65
-2 -8 -6 -37 -10 -65 -3 -27 -15 -102 -25 -165 -11 -63 -22 -133 -25 -155 -7
-41 -7 -47 -24 -155 -6 -36 -13 -83 -17 -105 -3 -22 -11 -73 -18 -113 -7 -40
-10 -74 -8 -77 3 -3 126 -5 274 -5 207 0 268 3 269 13 0 6 2 19 4 27 4 16 8
42 31 185 8 50 16 101 18 115 3 14 12 74 21 134 9 59 18 118 21 129 2 12 6 39
9 62 3 22 8 47 10 55 2 8 7 38 10 65 4 28 9 59 10 70 2 11 6 38 10 60 3 22 8
51 10 65 3 14 8 43 11 65 3 22 7 42 9 45 2 3 73 5 159 5 l156 0 1 25 c0 14 2
32 4 40 3 18 13 75 21 128 3 20 7 48 10 62 2 14 7 45 10 70 3 25 9 64 14 87
l7 41 -126 0 c-203 1 -190 -1 -186 24 5 26 34 189 41 233 2 17 6 41 9 55 3 14
7 40 10 58 3 17 7 46 10 62 l5 30 -273 0 -273 0 -23 -134z"/>
<path d="M3715 6839 c-179 -22 -314 -86 -425 -202 -18 -19 -19 -23 5 110 l7
42 -270 0 c-302 0 -275 7 -286 -74 -3 -22 -19 -125 -36 -230 -16 -104 -32
-208 -35 -230 -3 -22 -10 -62 -15 -90 -5 -27 -12 -67 -15 -87 -3 -21 -7 -55
-10 -75 -3 -21 -10 -60 -15 -88 -5 -27 -11 -68 -14 -90 -3 -22 -14 -94 -25
-160 -11 -66 -22 -140 -26 -165 -3 -25 -14 -94 -25 -155 -10 -60 -21 -132 -25
-160 -3 -27 -10 -75 -15 -105 -5 -30 -12 -70 -15 -87 -3 -18 -7 -46 -10 -62
-3 -16 -7 -48 -10 -71 -3 -24 -7 -46 -9 -49 -3 -3 -7 -32 -10 -63 -4 -31 -15
-102 -24 -157 -10 -56 -16 -103 -14 -106 3 -3 126 -5 273 -5 l267 0 6 28 c3
15 8 41 10 57 3 17 12 75 21 130 9 55 18 114 21 130 2 17 6 41 9 55 2 14 7 43
10 65 3 22 7 47 10 55 2 8 6 38 10 65 3 28 8 57 10 65 2 8 6 33 9 55 4 22 8
51 11 65 2 14 7 43 10 65 11 77 11 77 67 24 60 -58 169 -114 248 -130 53 -10
207 -12 260 -4 99 16 231 62 305 108 179 110 308 253 394 438 193 411 77 860
-265 1024 -38 19 -82 36 -97 39 -15 2 -31 7 -35 10 -5 3 -42 8 -83 11 -41 4
-78 7 -84 9 -5 1 -37 -1 -70 -5z m-25 -494 c60 -20 119 -74 151 -140 20 -42
24 -64 23 -135 -4 -235 -171 -400 -404 -400 -136 0 -229 49 -277 148 -44 90
-37 218 17 329 33 66 107 141 169 172 97 48 224 58 321 26z"/>
<path d="M5728 6845 c-2 -1 -34 -5 -73 -9 -64 -6 -97 -12 -165 -32 -61 -18
-202 -106 -244 -153 -21 -23 -38 -28 -31 -8 3 6 9 42 13 79 l8 67 -272 0 -272
0 -7 -42 c-4 -23 -9 -55 -11 -72 -3 -16 -7 -43 -9 -58 -2 -16 -6 -40 -9 -55
-3 -15 -8 -47 -11 -72 -3 -25 -10 -70 -15 -100 -5 -30 -12 -73 -15 -95 -4 -22
-15 -92 -25 -155 -10 -63 -21 -133 -25 -155 -6 -45 -33 -216 -40 -255 -2 -14
-7 -43 -10 -65 -4 -22 -8 -51 -10 -65 -2 -14 -13 -81 -24 -150 -11 -69 -22
-143 -26 -165 -4 -22 -8 -56 -11 -75 -2 -19 -6 -44 -9 -55 -2 -11 -13 -81 -25
-155 -11 -74 -23 -146 -25 -160 -2 -14 -7 -47 -11 -75 -5 -27 -9 -52 -9 -55
-1 -3 -5 -30 -9 -60 -5 -30 -10 -64 -12 -75 -3 -11 -7 -37 -9 -57 l-5 -38 273
0 272 0 20 123 c11 67 20 124 20 127 1 3 5 30 9 60 5 30 10 64 12 75 4 19 10
53 19 115 2 14 18 113 36 221 l31 197 31 -35 c29 -33 147 -120 147 -108 0 3
10 -1 23 -9 54 -36 233 -57 357 -42 144 18 311 89 430 184 311 248 451 680
335 1025 -62 182 -206 328 -387 393 -37 13 -223 45 -230 39z m-98 -497 c61
-17 142 -99 164 -165 28 -86 19 -187 -28 -294 -27 -63 -111 -146 -184 -181
-63 -31 -73 -33 -177 -33 -127 0 -174 16 -236 82 -84 88 -95 237 -29 386 26
58 111 147 169 176 86 45 222 56 321 29z"/>
<path d="M7250 6839 c-191 -14 -336 -62 -463 -153 -150 -107 -240 -268 -250
-446 -6 -111 20 -187 86 -251 53 -52 123 -83 271 -120 194 -49 236 -74 236
-139 0 -45 -26 -81 -77 -105 -104 -50 -283 -15 -452 87 -52 31 -67 36 -76 26
-7 -7 -61 -85 -120 -173 -60 -88 -114 -167 -121 -175 -11 -13 -10 -18 9 -30
117 -73 286 -133 422 -150 88 -11 225 -14 275 -5 14 2 43 6 65 10 167 25 353
115 458 221 165 168 221 441 124 607 -52 88 -148 143 -330 187 -141 35 -193
56 -213 84 -34 49 -3 109 73 142 77 33 282 10 360 -41 23 -16 26 -15 42 2 9
10 25 31 35 48 11 16 23 34 28 40 10 12 91 124 135 187 l33 46 -53 21 c-65 26
-140 48 -192 57 -22 3 -43 8 -46 10 -4 2 -40 6 -80 10 -41 3 -76 7 -79 8 -3 1
-48 -1 -100 -5z"/>
<path d="M9767 6844 c-1 -1 -29 -5 -62 -8 -135 -15 -291 -68 -410 -140 -123
-75 -251 -209 -325 -340 -24 -44 -80 -180 -86 -211 -2 -11 -11 -56 -20 -100
-21 -103 -21 -270 0 -358 77 -322 354 -498 774 -492 111 2 160 9 292 40 34 7
148 54 184 74 118 67 216 152 286 250 37 50 92 153 86 159 -3 2 -121 4 -263 4
l-258 1 -45 -42 c-25 -23 -70 -54 -100 -69 -49 -24 -66 -27 -150 -26 -144 1
-225 43 -266 139 -17 39 -28 163 -17 191 4 12 92 14 582 14 455 0 578 3 578
13 0 6 4 44 8 82 53 460 -162 762 -578 811 -53 6 -205 12 -210 8z m152 -365
c71 -24 141 -110 156 -192 l7 -37 -316 0 c-174 0 -316 4 -316 8 0 15 56 93 95
133 86 89 252 128 374 88z"/>
<path d="M11805 6809 c-155 -21 -297 -95 -413 -218 l-43 -46 6 55 c3 30 7 66
10 80 3 14 7 46 10 73 l4 47 -274 0 -275 0 -1 -25 c-1 -14 -2 -28 -3 -32 -1
-5 -5 -29 -9 -54 -4 -25 -10 -57 -12 -70 -2 -13 -6 -42 -9 -64 -4 -22 -8 -51
-11 -65 -3 -14 -7 -42 -10 -62 -12 -91 -16 -116 -25 -168 -5 -30 -12 -73 -15
-95 -3 -22 -8 -51 -10 -65 -3 -14 -7 -43 -11 -65 -8 -61 -33 -217 -39 -244 -2
-12 -7 -42 -9 -65 -3 -22 -8 -52 -10 -66 -3 -14 -7 -43 -11 -65 -31 -202 -46
-303 -50 -322 l-3 -22 274 0 c214 -1 274 2 275 11 0 7 3 27 5 43 18 110 57
366 69 451 43 299 94 421 213 507 114 83 306 96 464 32 17 -7 23 4 32 60 18
116 47 294 51 315 2 13 7 42 10 65 3 22 8 48 11 58 3 9 2 18 -3 18 -28 5 -146
4 -188 -2z"/>
</g>
</svg>
